<?xml version="1.0" encoding="UTF-8"?>
<svg width="143px" height="130px" viewBox="0 0 143 130" version="1.1" xmlns="http://www.w3.org/2000/svg" xmlns:xlink="http://www.w3.org/1999/xlink">
    <!-- Generator: Sketch 51.3 (57544) - http://www.bohemiancoding.com/sketch -->
    <title>wavbo</title>
    <desc>Created with Sketch.</desc>
    <defs></defs>
    <g id="Page-1" stroke="none" stroke-width="1" fill="none" fill-rule="evenodd">
        <g id="wavbo" transform="translate(-8.000000, -15.000000)" fill-rule="nonzero">
            <g id="503" transform="translate(81.154502, 80.738875) rotate(-9.000000) translate(-81.154502, -80.738875) translate(10.154502, 10.238875)">
                <g id="Group">
                    <g id="Shape" transform="translate(26.922333, 0.000000)">
                        <path d="M11.0617724,12.8279868 C9.55411,12.435787 8.55309041,10.9999041 8.70016431,9.44044807 C8.9504896,7.90585962 10.2621235,6.77496344 11.8080406,6.76082416 C11.4254601,5.81060291 11.0334331,4.78436397 11.227085,3.77237834 C11.4207369,2.76039272 12.4692909,1.84818032 13.432827,2.19976218 C14.3255148,2.5228374 14.4435952,3.67260511 14.4861042,4.62757746 C14.5286131,5.58254981 14.3444077,6.21919805 14.4058095,7.1741704 C14.4190885,8.21156787 14.6816053,9.23034454 15.1709705,10.1436118 C17.9434985,14.4623673 22.8934291,21.8835953 25.6612338,26.1975997 L17.6742752,31.7421407 L2.66861717,10.3621627 C2.05454248,9.46578267 1.52932696,8.51099318 1.10050938,7.51149894 C0.892687868,7.03638832 0.495937705,5.76309185 1.18080406,5.23096795 C1.78537574,4.75585733 2.3568849,4.90314162 3.14566201,5.32123897 C3.93443912,5.73933632 4.95937705,7.34996133 5.39391294,8.13389386 C4.95937705,7.34996133 4.2178321,6.00539827 3.80218907,5.37350114 C3.38654604,4.74160401 3.08898342,3.87690268 3.52351931,3.25450776 C4.00185688,2.71586887 4.78952776,2.58711655 5.41280581,2.94568586 C6.01517589,3.3095654 6.52083954,3.81495435 6.88644927,4.41852879 C7.23841666,5.02526879 7.72295805,5.54354016 8.30341414,5.93413167 C7.60639094,4.94408268 6.9963679,3.89487907 6.48025267,2.79840157 C6.25279715,2.42629299 6.18144961,1.97859216 6.28187759,1.55361174 C6.46381121,1.17197975 6.8532642,0.935062662 7.273753,0.950221245 C7.67965576,0.967097602 8.07189632,1.10246851 8.40260168,1.33981196 C9.63536112,2.13324669 10.636683,4.05269361 11.335719,5.34974561" fill="#FCCF3E"></path>
                        <path d="M25.2692069,26.4541595 C23.8853045,24.3019083 21.9251698,21.3182136 20.0264368,18.4342921 C18.1277039,15.5503707 16.162846,12.5619249 14.7789436,10.4049226 C14.2456182,9.42322302 13.9571171,8.3259886 13.9382111,7.20742814 C13.9160602,6.74627246 13.9286916,6.28409119 13.9759968,5.82485623 C14.0171507,5.43514295 14.0313545,5.0430256 14.0185058,4.65133299 C13.9712736,3.59183631 13.8248539,2.84591263 13.2769608,2.64636617 C13.0155342,2.55953916 12.729101,2.59620956 12.4976302,2.7461394 C12.0867693,2.98824336 11.7968243,3.39380208 11.6994066,3.86264936 C11.5246476,4.77011065 11.926121,5.76309185 12.2520229,6.58503323 L12.5259695,7.25969031 L11.8033174,7.25969031 C10.4973357,7.26472385 9.38190362,8.20873949 9.15359306,9.50221245 C9.05241791,10.8148548 9.89637528,12.0133595 11.16096,12.3528762 L10.9578617,13.3030974 C9.21155951,12.8568657 8.04886643,11.1973023 8.21839625,9.392937 C8.45712945,7.85645918 9.62525253,6.63398208 11.1420671,6.3332246 C10.776706,5.49777543 10.6475902,4.57711974 10.768933,3.67260511 C10.9195956,2.92834845 11.3782274,2.28385476 12.0300318,1.90044249 C12.5021921,1.6133502 13.0768441,1.5524117 13.5981395,1.73415377 C14.8545151,2.20926439 14.9253633,3.74862281 14.963149,4.58481751 C14.9752615,5.0177405 14.9594845,5.45099812 14.9159169,5.88186951 C14.8730674,6.29532536 14.8620137,6.71149179 14.8828544,7.12665934 C14.8966059,8.08989563 15.1378249,9.03604172 15.5866136,9.88705205 C16.9705159,12.0440543 18.9306507,15.0229979 20.8293836,17.9116705 C22.7281165,20.800343 24.6929745,23.7792867 26.0768768,25.94104 L25.2692069,26.4541595 Z" fill="#231815"></path>
                        <path d="M17.2869714,32.0177048 L2.28603666,10.6377268 C1.64848028,9.71172261 1.10569541,8.72321021 0.665973489,7.68728987 C0.467598407,7.21217925 -0.103910757,5.62055866 0.892687868,4.83662614 C1.48370737,4.36835394 2.29765587,4.30638397 2.95201015,4.67983963 C2.74243353,4.11072412 2.81063987,3.47565017 3.13621558,2.96469028 C3.69827831,2.15700223 4.85074307,2.09523784 5.63952018,2.48957966 C5.73870773,2.54184183 5.83317205,2.5988551 5.92763638,2.66061949 C5.74304843,2.25397871 5.71940325,1.7918739 5.86151135,1.36831859 C6.1093026,0.807219345 6.66827976,0.451110038 7.27847622,0.46560841 C7.78724727,0.478775619 8.2805703,0.644187631 8.69544109,0.940719032 C10.003772,1.78641594 11.009817,3.68210732 11.7419156,5.06467923 L11.7749781,5.12644362 L10.9389688,5.5730476 L10.8633973,5.51128322 C10.2304864,4.2759956 9.2527806,2.45632192 8.14754801,1.73890488 C7.89371647,1.55276538 7.59205434,1.44392156 7.27847622,1.42533187 C7.05500038,1.41596118 6.84517207,1.53342473 6.73530635,1.72940267 C6.69551321,2.03100477 6.76238764,2.33708017 6.924235,2.594104 C7.42706988,3.6677702 8.0229222,4.69480868 8.70488752,5.66331862 C8.83060247,5.84420812 8.81592494,6.08836227 8.66945664,6.25269544 C8.52298833,6.4170286 8.28330385,6.4582612 8.09086941,6.35222902 C7.44054968,5.92804382 6.89593579,5.35908117 6.49914554,4.68934184 C6.17785007,4.14393433 5.73070956,3.68437568 5.19553786,3.34952989 C4.7766919,3.09875652 4.24216994,3.1652331 3.89665339,3.5110675 C3.6085372,3.92441374 3.85414445,4.59907082 4.18004637,5.08843477 C4.58624296,5.70607857 5.27110932,6.94136619 5.71981486,7.75855646 L5.7906631,7.88683633 C5.83111168,7.95593098 5.8523212,8.03470545 5.85206492,8.11488943 C5.85253735,8.28899559 5.75829984,8.44941616 5.60645767,8.53298678 C5.49686017,8.59415508 5.36758692,8.60899652 5.24710584,8.57424279 C5.12662476,8.53948905 5.02481632,8.45799025 4.96410026,8.34769364 C4.36897502,7.26919252 3.47628715,6.02440269 2.91422442,5.725083 C2.08293836,5.28323012 1.79009895,5.32599008 1.4547506,5.58730092 C1.11940225,5.84861176 1.32722376,6.84634407 1.52087563,7.30720137 C1.93741441,8.28332921 2.44840821,9.21586957 3.04647447,10.0913496 L18.0474092,31.4713276 L17.2869714,32.0177048 Z" fill="#231815"></path>
                    </g>
                    <g transform="translate(10.391076, 5.226217)">
                        <ellipse id="Oval" fill="#FCCF3E" cx="63.5792137" cy="63.7550944" rx="62.7006955" ry="63.0709351"></ellipse>
                        <path d="M63.7114638,127.329647 C60.7407086,127.327882 57.7736707,127.118328 54.8318173,126.702501 C38.2365416,124.369944 23.2425768,115.500314 13.1496018,102.045527 C3.05662671,88.5907391 -1.30826657,71.6533769 1.01549149,54.9607968 C5.83789527,20.2777214 37.8282388,-4.02893808 72.3360566,0.826692483 C106.891614,5.68896624 130.985967,37.808772 126.152382,72.5683965 C121.786962,103.909399 95.1727232,127.250327 63.7114638,127.329647 Z M63.541428,1.16877213 C33.0152815,1.15451881 6.29604724,23.8315488 1.95068831,55.1128322 C-2.79547981,89.3423577 20.9368819,120.963209 54.9640673,125.747528 C88.9428849,130.52239 120.442014,106.605321 125.212462,72.4211122 C129.967397,38.1844399 106.233965,6.55152841 72.1990834,1.76266041 C69.3306465,1.3588468 66.4378198,1.15564534 63.541428,1.15451881 L63.541428,1.16877213 Z" id="Shape" fill="#231815"></path>
                    </g>
                    <path d="M86.9496877,8.31443589 C91.0431212,8.8860952 95.0761531,9.83232163 98.9986123,11.1413441 C82.0638338,3.74150204 62.7485382,4.22035983 46.1967139,12.4503896 C29.6448895,20.6804193 17.5369629,35.8260661 13.0974786,53.853789 C23.7245999,22.8648857 54.6744824,3.78031601 86.9496877,8.31443589 Z" id="Shape" fill="#FFFFFF" opacity="0.7"></path>
                    <path d="M119.152576,25.2473785 C134.096514,52.9928726 126.35557,87.578007 101.03261,106.204097 C75.7096509,124.830187 40.5989433,121.764225 18.8456328,99.027307 C30.4819678,120.631777 53.5324326,133.47165 77.9115561,131.928985 C102.29068,130.38632 123.559816,114.741985 132.412895,91.8409835 C141.265974,68.9399819 136.091137,42.9518407 119.152576,25.2473785 Z" id="Shape" fill="#F6AF74" opacity="0.3" style="mix-blend-mode: multiply;"></path>
                    <path d="M74.1025395,132.555864 C71.1317843,132.554099 68.1647464,132.344545 65.222893,131.928718 C48.6276173,129.59616 33.6336525,120.726531 23.5406775,107.271743 C13.4477024,93.8169559 9.08280915,76.8795938 11.4065672,60.1870136 C16.228971,25.5039382 48.2193145,1.19727877 82.7271324,6.05290933 C117.28269,10.9151831 141.377043,43.0349889 136.543458,77.7946133 C132.178038,109.135616 105.563799,132.476544 74.1025395,132.555864 Z M73.9325037,6.39498898 C43.4063572,6.38073566 16.687123,29.0577657 12.341764,60.339049 C7.5955959,94.5685746 31.3279576,126.189426 65.355143,130.973745 C99.3339606,135.748607 130.83309,111.831538 135.603538,77.647329 C140.358473,43.4106567 116.625041,11.7777453 82.5901591,6.98887726 C79.7217222,6.58506364 76.8288956,6.38186219 73.9325037,6.38073566 L73.9325037,6.39498898 Z" id="Shape" fill="#231815"></path>
                    <ellipse id="Oval" fill="#231815" cx="70.0641896" cy="19.3322512" rx="1.29888446" ry="1.30655421"></ellipse>
                    <ellipse id="Oval" fill="#231815" cx="104.057177" cy="45.1260069" rx="1.29888446" ry="1.30655421"></ellipse>
                    <g transform="translate(57.649127, 20.429757)">
                        <g id="Shape" opacity="0.7" transform="translate(1.391076, 0.000000)" fill="#FFFFFF">
                            <path d="M1.32250055,3.06446351 L0.311732272,0.916963501 C1.66945062,0.274282222 3.22967516,0.21933474 4.62875191,0.764928102 L3.77857299,2.9789436 C2.98168066,2.67454252 2.09656031,2.70536222 1.32250055,3.06446351 Z"></path>
                        </g>
                        <g id="Shape" opacity="0.7" transform="translate(31.619660, 23.280420)" fill="#FFFFFF">
                            <path d="M1.28943803,3.02645466 L0.245607244,0.89320797 C1.66275122,0.197887045 3.30086736,0.115497595 4.77989483,0.665154871 L3.95805521,2.89342369 C3.08697739,2.57463433 2.1249133,2.62259338 1.28943803,3.02645466 Z"></path>
                        </g>
                        <path d="M30.4577484,34.4312668 C27.7984073,32.2943629 27.3088583,28.4183675 29.3524933,25.6804289 C31.3961282,22.9424903 35.2329525,22.3340087 38.0148944,24.3066594 L37.4481085,25.0668364 C35.0880113,23.2902059 31.7443495,23.765839 29.9665339,26.1310842 C29.1132247,27.2717647 28.745759,28.7068996 28.9450961,30.1203022 C29.1444333,31.5337049 29.8942176,32.8094037 31.0292576,33.6663387 L30.4577484,34.4312668 Z" id="Shape" fill="#231815"></path>
                        <path d="M3.9605053,12.8279868 C2.5966458,12.8293859 1.2697235,12.3822421 0.18193236,11.5546903 L0.74871831,10.7945133 C3.1126175,12.4974055 6.3957222,11.9900981 8.1425173,9.65201893 C9.8893125,7.31393975 9.460596,4.00065849 7.1770156,2.19025997 L7.7438016,1.43483408 C9.7792466,2.97218829 10.6932364,5.59178816 10.0593664,8.07150929 C9.4254965,10.5512304 7.3686739,12.402432 4.84847,12.7614713 C4.554366,12.8042619 4.2576662,12.826487 3.9605053,12.8279868 Z" id="Shape" fill="#231815"></path>
                        <polygon id="Rectangle-path" fill="#231815" transform="translate(19.122254, 17.903137) rotate(-53.070000) translate(-19.122254, -17.903137) " points="18.6222545 4.71406568 19.5668977 4.71406568 19.5668977 31.0922074 18.6222545 31.0922074"></polygon>
                    </g>
                    <g id="Shape" transform="translate(114.774155, 62.239492)">
                        <path d="M13.1588804,8.02936952 C14.0674899,9.33058818 15.8117354,9.72168889 17.1837241,8.93183375 C18.5557128,8.14197862 19.1039942,6.43106807 18.4488826,4.98391043 C19.4738205,4.98391043 20.5648835,4.94115047 21.4150624,4.37101773 C22.2652413,3.80088498 22.7045004,2.47057524 22.0101877,1.71990045 C21.3158749,0.96922567 20.2720441,1.35406527 19.3793562,1.6818916 C18.4866683,2.00971793 17.9623913,2.42306417 17.0697035,2.73188608 C16.1134106,3.12024243 15.0779338,3.27020547 14.0515683,3.16898785 C9.02606623,2.25677546 7.31153873,1.70089603 2.28603666,0.793434739 L0.226714379,10.8182689 L18.6472577,14.8567092 C19.7115103,15.0818551 20.7951901,15.2012068 21.8826608,15.2130421 C22.4069378,15.2130421 23.7152687,15.1037667 23.9419831,14.2628209 C24.1450814,13.5216483 23.7908402,13.0465377 23.1012506,12.4764049 C22.411661,11.9062722 20.5459906,11.5736948 19.658026,11.4739215 C20.5459906,11.5736948 22.062143,11.7399835 22.803688,11.8872678 C23.5452329,12.0345521 24.4520904,11.9727877 24.8535638,11.3313883 C25.1778126,10.6717958 24.9893175,9.8734459 24.4048583,9.43094585 C23.8358574,9.01597576 23.174007,8.74836696 22.4777861,8.65176443 C21.7800154,8.55109815 21.1134926,8.2946031 20.5270978,7.90108965 C21.7061787,8.16336147 22.9056422,8.32232671 24.1120189,8.37620027 C24.541151,8.44920341 24.9813108,8.34280398 25.3306087,8.08163169 C25.6055632,7.77052666 25.6739325,7.32628976 25.5053677,6.9461173 C25.3346828,6.5733933 25.0587162,6.2594453 24.7118673,6.04340712 C23.5121704,5.20721242 21.363107,5.01716817 19.9083564,4.87938609" fill="#FCCF3E"></path>
                        <path d="M15.7283101,9.77777661 C14.5644634,9.78953388 13.4653265,9.24025269 12.7715767,8.30018257 L13.5414609,7.75380536 C14.3055995,8.86581028 15.7886566,9.20458788 16.9553113,8.5336378 C18.121966,7.86268771 18.5840879,6.40522614 18.0190699,5.17870578 L17.7215073,4.51830202 L18.4441594,4.51830202 C19.3132312,4.51830202 20.3901245,4.51830202 21.1552855,3.98617812 C21.5464656,3.71463894 21.8068098,3.29080444 21.8732144,2.81740599 C21.9180719,2.54414888 21.8421774,2.26480434 21.6653929,2.05247789 C21.2686427,1.62012722 20.5270978,1.77216262 19.5399456,2.1379978 C19.1750249,2.2709996 18.8198999,2.42976493 18.4772219,2.61310842 C18.0754164,2.83434885 17.6569035,3.02339457 17.2255696,3.17849006 C16.1926799,3.59691903 15.0750346,3.75985307 13.9665504,3.65360069 C11.4490762,3.17849006 9.7156558,2.8269082 8.07197655,2.46582413 C6.4282973,2.10474006 4.70904659,1.73415377 2.20101877,1.27804757 L2.37105455,0.327826329 C4.89325202,0.802936952 6.62194916,1.15926992 8.27035163,1.52035399 C9.91875409,1.88143806 11.6332816,2.25202435 14.1365862,2.70337944 C15.0832824,2.78622294 16.0361018,2.64465288 16.9185606,2.2900332 C17.3058039,2.14826365 17.6816227,1.97671699 18.042686,1.77691373 C18.4211704,1.57263189 18.8124467,1.39329601 19.2140436,1.24003872 C19.9980975,0.950221245 21.4575714,0.418097348 22.3597057,1.40157634 C22.7322119,1.81547489 22.9049393,2.37320395 22.8320273,2.92668143 C22.7309616,3.67625879 22.3191087,4.3477455 21.6984554,4.77486175 C20.9154891,5.23536994 20.0216991,5.47040958 19.1148561,5.45426994 C19.4181227,6.97736657 18.7474164,8.52947909 17.4333911,9.34542594 C16.9123766,9.63699954 16.3244712,9.78607239 15.7283101,9.77777661 Z" fill="#231815"></path>
                        <path d="M21.9251698,15.6786505 L21.9015537,15.6786505 C20.7902068,15.6661176 19.6827844,15.5435819 18.5953023,15.3128154 L0.141696487,11.2743751 L0.344794785,10.3479094 L18.7889542,14.3815985 C19.8189273,14.6003843 20.867825,14.7165557 21.9204465,14.7284293 C22.5014021,14.7284293 23.4035364,14.5763939 23.5263401,14.1250388 C23.6491437,13.6736837 23.5641258,13.4266262 22.8367505,12.8279868 C22.3644289,12.4193917 20.8577229,12.0678098 19.6391331,11.9300277 C19.4006272,11.9010349 19.2217548,11.6965706 19.2234901,11.4549171 L19.2234901,11.4026549 C19.2365356,11.2763312 19.2993177,11.1605198 19.397822,11.0810725 C19.4963263,11.0016252 19.6223519,10.9651563 19.7477671,10.9798065 L19.8752939,10.9798065 C20.8199372,11.0843308 22.2085627,11.2458684 22.9312148,11.3884016 C23.5074472,11.5024282 24.2206529,11.4691704 24.4898762,11.0415709 C24.6731652,10.5879395 24.5296406,10.0670296 24.1403582,9.7730255 C23.6267581,9.41014021 23.0337886,9.17709282 22.411661,9.09361731 C21.6449837,8.98040995 20.913601,8.69457453 20.2720441,8.25742262 C20.0983348,8.11928303 20.0433509,7.87829555 20.139794,7.67778766 C20.235417,7.47898709 20.4546135,7.37267901 20.6687942,7.42122792 C21.8195518,7.68123801 22.9905877,7.84020572 24.1686975,7.89633854 C24.4682734,7.94927206 24.7767811,7.89192858 25.0377693,7.73480093 C25.1751929,7.55879375 25.2025819,7.32002058 25.1086175,7.11715712 C24.9696863,6.83136217 24.7515185,6.59210557 24.4804297,6.42824672 C23.4035364,5.67757194 21.339491,5.47802548 19.9792047,5.35449671 L19.9036332,5.35449671 L19.9933743,4.40427547 L20.0642226,4.40427547 C21.6134375,4.55155976 23.7341616,4.75110622 25.0188764,5.64431419 C25.436166,5.91273224 25.7649156,6.29964058 25.9635196,6.75607305 C26.2059884,7.31465022 26.0945504,7.96480694 25.6801267,8.40945802 C25.3454306,8.70503857 24.9114017,8.86132825 24.4662601,8.84655979 C24.558314,8.9076955 24.6466394,8.97433065 24.7307602,9.04610625 C25.4061801,9.62574121 25.7934839,10.7184956 25.2692069,11.5499392 C24.9295673,12.0527859 24.3712708,12.3618387 23.7672241,12.3813828 C24.3623484,12.8466345 24.6197126,13.6270381 24.4190279,14.357843 C24.0884028,15.5883795 22.4588932,15.6786505 21.9251698,15.6786505 Z" fill="#231815"></path>
                    </g>
                    <g id="Shape" transform="translate(63.763419, 97.397678)">
                        <g id="Group" transform="translate(5.667859, 0.000000)">
                            <path d="M2.20574198,0.475110622 C2.55212109,1.65112336 3.34670089,2.64167375 4.41620718,3.23075223 C5.49728925,3.81108956 6.78880354,3.83756661 7.89249433,3.30201883 C8.51551686,2.92987775 9.09260715,2.48493565 9.61174504,1.97646019 C10.1390884,1.46188452 10.7900139,1.09357687 11.5010315,0.907461289 C12.2253489,0.729040894 12.9827308,1.02997329 13.390318,1.65813607 C13.7303896,2.29953541 13.3100234,3.27826329 12.5873713,3.29726772 C12.9836231,2.54483217 13.8290584,2.14935779 14.6564056,2.32942308 C15.4837528,2.50948836 16.0910522,3.22113846 16.1426499,4.07104475 C16.1942475,4.92095103 15.6775481,5.70164714 14.8781311,5.98164274 C15.0009348,5.2642257 16.0872745,5.07418145 16.5879354,5.59680313 C17.0539653,6.17911873 17.0846918,7.00010942 16.6635069,7.61602328 C16.2408764,8.20063078 15.697982,8.68677331 15.071783,9.04135514 L12.6346034,10.6709846 C10.2729953,12.253103 7.68467281,13.9017368 4.83657342,13.8257191 C3.49039528,13.8545697 2.20110172,13.280101 1.31777733,12.2578541 C0.510107353,11.1983574 0.495937705,9.49746134 1.5114292,8.63751111" id="Shape" fill="#FCCF3E"></path>
                            <path d="M5.00660921,14.3388386 L4.79878769,14.3388386 C3.30846327,14.3710867 1.88276463,13.7273042 0.91630395,12.5856804 C0.00472321624,11.3979038 -0.103910757,9.39768811 1.17608084,8.30968479 L1.78537574,9.03660404 C0.930473598,9.75877218 1.03438436,11.1793529 1.66257211,12.0012943 C2.45690743,12.9148396 3.6164551,13.4221951 4.82240378,13.3838662 C7.41544949,13.464635 9.76288796,12.029801 12.341764,10.3051494 L14.7789436,8.67551996 C15.3497033,8.35371763 15.8456554,7.91314769 16.2336942,7.38321907 C16.5281307,6.95426595 16.5281307,6.38684033 16.2336942,5.9578872 C16.1562747,5.88813771 16.0616714,5.84055674 15.9597477,5.82010512 C15.7074937,6.1160459 15.3814396,6.33907196 15.0151044,6.46625557 C14.8565606,6.51948474 14.6818557,6.48446342 14.5557088,6.37416521 C14.429562,6.263867 14.3707601,6.09471852 14.4010863,5.92938057 C14.4998125,5.44215729 14.8667554,5.05459225 15.3457295,4.93164826 L15.4732564,4.89839052 C15.5279277,4.79044484 15.5722125,4.67748795 15.6055064,4.56106197 C15.777519,4.11613782 15.6916767,3.61206381 15.382253,3.25009801 C15.0728293,2.88813221 14.5902302,2.72723986 14.1271398,2.83165931 C14.030941,2.84055797 13.9359481,2.85966874 13.8437468,2.88867258 C13.8189435,2.95516549 13.7872825,3.01886129 13.7492825,3.07871683 C13.520467,3.50724999 13.0846086,3.78329979 12.6015409,3.80563609 C12.4372116,3.80503619 12.2836372,3.72335647 12.1906211,3.5870852 C12.098822,3.44436794 12.0898164,3.26319112 12.167005,3.11197458 C12.3641795,2.7291119 12.6677668,2.41217707 13.0408,2.19976218 C13.0452144,2.09947189 13.0240786,1.99971039 12.9793982,1.9099447 C12.6665313,1.47239434 12.1200604,1.27096399 11.6002191,1.40157634 C10.9802213,1.57423714 10.4133613,1.90100342 9.95181661,2.35179758 L9.66370042,2.60835732 C9.20401505,3.04911719 8.69153629,3.43055889 8.13810157,3.7438717 C6.89588194,4.34200632 5.44559877,4.31381604 4.22727853,3.667854 C3.04766181,3.01877129 2.17019033,1.92783287 1.78537574,0.631897128 L2.69223325,0.351581861 C2.9990381,1.40684214 3.70892419,2.296877 4.66653764,2.8269082 C5.6123421,3.33402411 6.74146923,3.35871529 7.7082889,2.89342369 C8.19160353,2.61978667 8.63771078,2.28442829 9.03551266,1.89569138 L9.33307528,1.63438054 C9.9069081,1.07844041 10.6125607,0.679371478 11.3829511,0.475110622 C12.310912,0.247037968 13.2790138,0.64847391 13.7776218,1.46809182 C13.8480218,1.6021925 13.8974105,1.74642566 13.9240415,1.89569138 L13.9807201,1.89569138 C14.7578645,1.75555911 15.5507275,2.03935418 16.0651872,2.64179948 C16.579647,3.24424477 16.738959,4.07547058 16.4840247,4.82712392 C16.4840247,4.8841372 16.4509621,4.93639937 16.4320693,4.98866154 C16.6092724,5.06158184 16.7699467,5.16986924 16.9043909,5.30698565 C17.5167071,6.04685014 17.5742942,7.10305537 17.0460874,7.90584076 C16.5911268,8.5593976 15.9974264,9.10304991 15.3079438,9.49746134 L12.8707642,11.1270908 C10.2163167,12.8707468 7.78858357,14.3388386 5.00660921,14.3388386 Z" id="Shape" fill="#231815"></path>
                        </g>
                        <g id="Group" transform="translate(0.000000, 3.800885)">
                            <path d="M0.755714598,0.194795355 C1.69845059,2.96316605 3.75554542,5.20484457 6.42357408,6.37123345" id="Shape" fill="#FCCF3E"></path>
                            <path d="M6.23464543,6.80833522 C3.44376235,5.58827146 1.29224237,3.24297645 0.307009055,0.346830754 L1.19969692,0.042759956 C2.10397142,2.68361706 4.06731619,4.82227163 6.61250273,5.93888278 L6.23464543,6.80833522 Z" id="Shape" fill="#231815"></path>
                        </g>
                        <path d="M9.02134301,12.2008408 C8.60097676,11.7969968 8.28452128,10.956051 8.71433395,10.4809403 C9.06857517,10.0913496 9.6589772,9.97257196 10.0982363,9.74451887 C10.512862,9.54716413 10.8466833,9.21137162 11.0428796,8.79429762 C11.2554243,8.26692483 11.0948349,7.69204098 11.3168261,7.15991708 C11.8411031,5.90562504 13.1163715,5.44951884 14.372747,5.33074118 C15.245759,5.22950672 16.1239218,5.47119353 16.8240962,6.00539827 C17.8995322,6.98363154 18.2606586,8.52937345 17.7309537,9.88705205 C17.1839511,11.2074777 16.0869695,12.218837 14.7317114,12.6521959 C13.3967539,13.0625807 11.9810544,13.1311707 10.6130669,12.8517423 C10.0297946,12.7994678 9.47542875,12.5727717 9.02134301,12.2008408 Z" fill="#F6AF74" opacity="0.3" style="mix-blend-mode: multiply;"></path>
                    </g>
                    <g id="Shape" transform="translate(0.000000, 45.135509)">
                        <polygon fill="#FCCF3E" points="14.963149 11.8635122 12.6204338 11.630708 5.82844883 16.4008187 9.59757539 19.0614382 14.897024 19.8358685"></polygon>
                        <g id="Group">
                            <path d="M7.93972649,16.0539879 C7.60910135,17.3462888 6.07877929,18.068457 4.77989483,17.7928928 C3.48175565,17.432982 2.40917989,16.5124288 1.85150076,15.2795576 C0.5526163,12.7282136 0.906857517,9.68275448 1.31305411,6.84159296 L1.71925071,3.92916485 C1.76894798,3.202721 1.97524736,2.49586434 2.32382239,1.85768253 C2.69636542,1.21266977 3.44325226,0.88710769 4.16587672,1.05474558 C4.85074307,1.28754979 5.1483057,2.35179758 4.56262688,2.77464603 C4.52309993,2.1509963 4.77354397,1.54420821 5.24056441,1.13210581 C5.70758484,0.720003406 6.3382916,0.549257298 6.94785108,0.669905978 C7.53398025,0.874002556 7.99301501,1.3397723 8.19081958,1.93111138 C8.38862415,2.52245046 8.3028714,3.17261162 7.95861936,3.69160954 C7.66577995,3.02645466 8.35536952,2.22351771 9.08274482,2.26627767 C9.8196209,2.36543007 10.4140917,2.92151439 10.5658347,3.65360069 C10.7045851,4.3734801 10.6524567,5.11741872 10.4146918,5.81060291 C10.1806838,6.50078862 10.0315799,7.2172028 9.97070947,7.94384961 C9.96987417,9.17474124 10.5522908,10.3323357 11.5388173,11.0605753 C12.5289919,11.7753959 13.7592836,12.0689955 14.963149,11.8777656" id="Shape" fill="#FCCF3E"></path>
                            <path d="M5.34195756,18.3250167 C5.11979071,18.327128 4.89805917,18.304824 4.68070729,18.2585012 C3.23627538,17.8773364 2.03823541,16.8640638 1.41696487,15.4981085 C0.108633973,12.92776 0.377857299,10.0295852 0.831286057,6.77982858 L1.23748265,3.86264936 C1.29399779,3.06641487 1.52462981,2.29256116 1.91290258,1.59637169 C2.40465653,0.771400673 3.37567502,0.367959534 4.30284999,0.60339049 C4.47701854,0.669237388 4.6372647,0.767564747 4.77517161,0.89320797 C4.81375657,0.851228649 4.85476187,0.811567663 4.89797524,0.774430314 C5.48434253,0.224941185 6.30772557,0.0120661182 7.08482435,0.209048674 C7.83347306,0.438070118 8.42073574,1.02524189 8.65293214,1.77691373 C8.65027064,1.79423159 8.65027064,1.81185803 8.65293214,1.8291759 C8.79750021,1.78983675 8.94735425,1.7738007 9.09691447,1.78166483 C10.045535,1.87891012 10.8227839,2.58198844 11.0192635,3.52056971 C11.1713571,4.31241274 11.1193232,5.13024317 10.8681206,5.89612282 L10.7594866,6.27621132 C10.5827726,6.80641499 10.4748214,7.35734241 10.4383079,7.91534297 C10.4291685,9.0003754 10.9387435,10.0237759 11.8080406,10.6662335 C12.6949795,11.3087067 13.7994198,11.57021 14.8781311,11.3931527 L15.0198276,12.343374 C13.691186,12.5569865 12.3325276,12.2323997 11.2412546,11.4406638 C10.1328212,10.6166897 9.48042148,9.31124193 9.4842182,7.92484518 C9.52294686,7.28788392 9.6436073,6.65866112 9.84318263,6.05290933 L9.94709339,5.68232304 C10.1521981,5.07100959 10.2041148,4.41821957 10.0982363,3.78188055 C9.99032433,3.25358737 9.5728983,2.84499401 9.04495909,2.7508905 C8.94540664,2.75299127 8.84734314,2.77563054 8.7568429,2.81740599 C8.73167352,3.24858213 8.57867809,3.66228872 8.31758379,4.00518255 C8.21609837,4.13653008 8.05371067,4.2049188 7.88946652,4.18548186 C7.72522237,4.16604492 7.58304708,4.06161368 7.51463703,3.91016042 C7.32265256,3.46157162 7.38200288,2.94416493 7.67050317,2.55134404 C7.70888903,2.49283533 7.75151366,2.43725492 7.79803,2.38505532 C7.78276931,2.28967906 7.75905877,2.1958669 7.72718176,2.10474006 C7.59536815,1.65587943 7.25288292,1.300717 6.81087781,1.15451881 C6.35408631,1.05692743 5.87882234,1.19199563 5.54033264,1.51560289 C5.44987237,1.5958547 5.36759596,1.68498326 5.2947254,1.78166483 C5.2947254,1.82442479 5.2947254,1.87193585 5.2947254,1.91469581 C5.3886346,2.39476676 5.20599043,2.88714349 4.82240378,3.18799228 C4.68488356,3.28803881 4.5045741,3.30617623 4.35008215,3.23550334 C4.19938085,3.1692098 4.09381788,3.0288279 4.07141239,2.86491705 C4.02143307,2.46456254 4.08359511,2.05812343 4.25089461,1.69139382 C4.1902965,1.60730691 4.10656083,1.54289564 4.01001058,1.50610067 C3.49147757,1.41133613 2.97017144,1.65732007 2.71112612,2.11899338 C2.40031226,2.70685416 2.21831987,3.35487905 2.17740268,4.01943587 L1.77120609,6.93186398 C1.34139341,10.020083 1.08161652,12.7662224 2.24352771,15.0895134 C2.73472037,16.1960777 3.69040141,17.0250457 4.85074307,17.3510399 C5.85678813,17.5648397 7.17928868,17.0469691 7.45323522,15.9589658 L8.36953917,16.1965211 C8.0294676,17.579093 6.65028846,18.3250167 5.34195756,18.3250167 Z" id="Shape" fill="#231815"></path>
                        </g>
                        <path d="M13.6973271,20.3869968 C11.0945486,20.3809742 8.5804279,19.4351408 6.61250273,17.7216262 L7.23596727,17.0089603 C9.33314332,18.8382828 12.0964201,19.6999051 14.8545151,19.3845134 L14.9678722,20.3347346 C14.5458469,20.3786769 14.1215101,20.3961314 13.6973271,20.3869968 Z" fill="#231815"></path>
                        <path d="M6.71169027,11.4691704 C6.6998015,12.0767455 6.44225882,12.6532045 5.99848462,13.0655421 C5.24749324,13.6071682 4.04779631,13.1748176 3.37709961,13.8114658 C2.98453887,14.2471266 2.90523216,14.8834273 3.17872453,15.4030864 C3.44982848,15.9168808 3.86112186,16.3421409 4.3642518,16.6288718 C4.80911312,17.0004295 5.36831616,17.2052821 5.94652924,17.2085067 C6.61467137,17.1879579 7.26130541,16.9661751 7.80275322,16.5718585 C8.84658401,15.7926771 9.21971809,14.4433629 9.36141458,13.2033242 C9.49366463,12.1153209 9.72037901,10.5332025 8.85603044,9.67325227 C7.60910135,8.41420912 6.83921711,10.5237003 6.71169027,11.4691704 Z" fill="#F6AF74" opacity="0.3" style="mix-blend-mode: multiply;"></path>
                    </g>
                </g>
                <path d="M96.1701462,132.590917 C95.296176,132.591282 94.4272916,132.461557 93.5936445,132.206244 L93.8601792,131.385033 C97.5593817,132.52354 101.5524,130.814102 103.188892,127.391349 L103.992938,127.754412 C102.581121,130.71573 99.5252088,132.605073 96.1701462,132.590917 Z" id="Shape" fill="#92D4F5"></path>
                <path d="M99.8202125,136.924035 L99.6598993,136.924035 L99.7011227,136.040868 C101.315201,136.048681 102.718433,134.974866 103.076862,133.457604 L103.992938,133.62099 C103.567386,135.523171 101.838366,136.891828 99.8202125,136.924035 Z" id="Shape" fill="#92D4F5"></path>
                <path d="M103.008363,140.390408 C102.748247,140.392288 102.491501,140.329296 102.259723,140.206731 L102.677146,139.37312 C102.937226,139.479105 103.229097,139.46064 103.474852,139.322652 C103.720606,139.184665 103.895227,138.941202 103.952103,138.657251 L104.859546,138.751444 C104.79044,139.357175 104.434726,139.887176 103.911269,140.164344 C103.63267,140.315295 103.322623,140.392923 103.008363,140.390408 Z" id="Shape" fill="#92D4F5"></path>
            </g>
        </g>
    </g>
</svg>