<svg xmlns="http://www.w3.org/2000/svg" xmlns:xlink="http://www.w3.org/1999/xlink" width="126.85mm" height="118.62mm" viewBox="0 0 359.57 336.26">
  <defs>
    <filter id="luminosity-noclip" x="22.81" y="-8351.18" width="349.03" height="32766" filterUnits="userSpaceOnUse" color-interpolation-filters="sRGB">
      <feFlood flood-color="#fff" result="bg"/>
      <feBlend in="SourceGraphic" in2="bg"/>
    </filter>
    <mask id="mask" x="22.81" y="-8351.18" width="349.03" height="32766" maskUnits="userSpaceOnUse">
      <g filter="url(#luminosity-noclip)"/>
    </mask>
    <filter id="luminosity-noclip-2" x="2.16" y="-21.03" width="346.7" height="356.07" filterUnits="userSpaceOnUse" color-interpolation-filters="sRGB">
      <feFlood flood-color="#fff" result="bg"/>
      <feBlend in="SourceGraphic" in2="bg"/>
    </filter>
    <mask id="mask-2" x="2.16" y="-21.03" width="346.7" height="356.07" maskUnits="userSpaceOnUse">
      <circle cx="162.76" cy="139.57" r="160.59" fill="#231916" filter="url(#luminosity-noclip-2)"/>
    </mask>
    <filter id="luminosity-noclip-3" x="22.81" y="12.62" width="349.03" height="354.67" filterUnits="userSpaceOnUse" color-interpolation-filters="sRGB">
      <feFlood flood-color="#fff" result="bg"/>
      <feBlend in="SourceGraphic" in2="bg"/>
    </filter>
    <mask id="mask-3" x="22.81" y="12.62" width="349.03" height="354.67" maskUnits="userSpaceOnUse">
      <g mask="url(#mask)" filter="url(#luminosity-noclip-3)">
        <circle cx="197.33" cy="192.77" r="174.49" fill="#231916"/>
      </g>
    </mask>
  </defs>
  <title>Asset 6</title>
  <g style="isolation: isolate">
    <g id="Layer_2" data-name="Layer 2">
      <g id="圖層_1" data-name="圖層 1">
        <g>
          <g>
            <path d="M96.07,31.5A8.12,8.12,0,0,1,90,22.88,8.13,8.13,0,0,1,98,16c-1-2.43-2-5-1.48-7.61s3.18-4.9,5.64-4c2.29.83,2.58,3.75,2.69,6.19s-.36,4.05-.2,6.48.59,5.45,2,7.56c7.1,11,19.78,29.89,26.87,40.88L113,79.62,74.58,25.16a42.8,42.8,0,0,1-4-7.29c-.53-1.25-1.55-4.45.21-5.81,1.55-1.21,3-.84,5,.24s4.64,5.15,5.76,7.16c-1.12-2-3-5.43-4.08-7S75.66,8.61,76.77,7,80,5.42,81.64,6.24A11,11,0,0,1,85.37,10a12.07,12.07,0,0,0,3.68,3.87,53.22,53.22,0,0,1-4.67-8,4.13,4.13,0,0,1-.51-3.17,2.72,2.72,0,0,1,2.5-1.53,5.38,5.38,0,0,1,2.9,1c3.15,2,5.72,6.91,7.48,10.22" fill="#9f9f9b"/>
            <path d="M132.47,66.15c-3.55-5.49-8.57-13.08-13.43-20.42s-9.89-14.95-13.45-20.45c-1.6-2.48-2-5.83-2.14-8.14a22,22,0,0,1,.09-3.52,20.58,20.58,0,0,0,.1-3c-.12-2.69-.49-4.59-1.89-5.1a2.38,2.38,0,0,0-2,.25,4.4,4.4,0,0,0-2,2.85c-.44,2.3.59,4.87,1.42,6.93l.7,1.71L98,17.22A7,7,0,0,0,91.19,23a7,7,0,0,0,5.14,7.29l-.52,2.36a9.36,9.36,0,0,1-7-9.95,9.44,9.44,0,0,1,7.49-7.79,12.53,12.53,0,0,1-1-6.77,6.71,6.71,0,0,1,3.23-4.49,4.77,4.77,0,0,1,4-.43c3.22,1.17,3.4,5.14,3.49,7.27a24.56,24.56,0,0,1-.11,3.31,19,19,0,0,0-.09,3.15c.14,2,.47,5,1.76,7,3.55,5.49,8.58,13.08,13.43,20.42s9.9,15,13.45,20.45Z" fill="#fff"/>
            <path d="M112,80.31,73.59,25.86a44,44,0,0,1-4.15-7.52c-.5-1.2-2-5.26.59-7.24a4.78,4.78,0,0,1,5.28-.4,4.89,4.89,0,0,1,.47-4.36c1.44-2,4.39-2.21,6.41-1.18a6.65,6.65,0,0,1,.73.43,4.56,4.56,0,0,1-.17-3.3A3.9,3.9,0,0,1,86.36,0a6.9,6.9,0,0,1,3.56,1.19c3.36,2.16,5.93,7,7.81,10.49l.08.17L95.68,13l-.09-.16c-1.65-3.1-4.14-7.78-7-9.6a4.27,4.27,0,0,0-2.24-.8A1.53,1.53,0,0,0,85,3.19a3.2,3.2,0,0,0,.48,2.21A51.7,51.7,0,0,0,90,13.21,1.21,1.21,0,0,1,88.46,15a13,13,0,0,1-4.08-4.23,10,10,0,0,0-3.29-3.42c-1.08-.55-2.68-.51-3.33.42s-.11,2.77.73,4c1,1.56,2.78,4.69,3.93,6.77l.19.35a1.13,1.13,0,0,1,.16.58,1.21,1.21,0,0,1-.63,1.06A1.19,1.19,0,0,1,80.5,20c-1.53-2.74-3.82-5.91-5.26-6.68-2.13-1.12-2.87-1-3.73-.34-1,.78-.33,3.2.16,4.38a41.31,41.31,0,0,0,3.92,7.08L114,78.92Z" fill="#fff"/>
          </g>
          <g>
            <circle cx="188.25" cy="174.43" r="160.59" fill="#9f9f9b"/>
            <path d="M188.59,336.26a164.79,164.79,0,0,1-22.75-1.59A161.8,161.8,0,0,1,28,152C40.36,63.67,122.28,1.84,210.65,14.19A161.82,161.82,0,0,1,348.49,196.83l-1.2-.16,1.2.16a161.87,161.87,0,0,1-159.9,139.43ZM188.14,15C110,15,41.53,72.77,30.4,152.36A159.38,159.38,0,0,0,284.25,301.65,158.34,158.34,0,0,0,346.09,196.5h0c12.17-87-48.74-167.74-135.77-179.91A158.88,158.88,0,0,0,188.14,15Z" fill="#fff"/>
          </g>
          <g mask="url(#mask-2)">
            <circle cx="188.25" cy="174.43" r="160.59" fill="#63686e" opacity="0.3" style="mix-blend-mode: multiply"/>
          </g>
          <g mask="url(#mask-3)">
            <g opacity="0.7">
              <circle cx="188.25" cy="174.43" r="160.59" fill="#b5b6b6"/>
              <path d="M188.59,336.26a164.79,164.79,0,0,1-22.75-1.59A161.8,161.8,0,0,1,28,152C40.36,63.67,122.28,1.84,210.65,14.19A161.82,161.82,0,0,1,348.49,196.83l-1.2-.16,1.2.16a161.87,161.87,0,0,1-159.9,139.43ZM188.14,15C110,15,41.53,72.77,30.4,152.36A159.38,159.38,0,0,0,284.25,301.65,158.34,158.34,0,0,0,346.09,196.5h0c12.17-87-48.74-167.74-135.77-179.91A158.88,158.88,0,0,0,188.14,15Z" fill="#fff"/>
            </g>
          </g>
          <g opacity="0.7">
            <path d="M153.39,58.61l-2.59-5.47a14.08,14.08,0,0,1,11.06-.38l-2.19,5.63A8.14,8.14,0,0,0,153.39,58.61Z" fill="#b5b6b6"/>
          </g>
          <g opacity="0.7">
            <path d="M230.73,117.79l-2.67-5.43a14.79,14.79,0,0,1,11.61-.58l-2.11,5.67A8.76,8.76,0,0,0,230.73,117.79Z" fill="#b5b6b6"/>
          </g>
          <path d="M224.45,138.47a16.12,16.12,0,0,1,19.38-25.77l-1.46,1.94a13.7,13.7,0,1,0-16.46,21.9Z" fill="#fff"/>
          <path d="M156.58,83.44a16,16,0,0,1-9.65-3.24l1.46-1.93a13.7,13.7,0,0,0,19.18-2.72,13.71,13.71,0,0,0-2.72-19.18l1.45-1.94a16.12,16.12,0,0,1-9.72,29Z" fill="#fff"/>
          <path d="M220.05,119.51c-2.12-1.59-2.27-3.65-2.39-5.31s-.25-2.68-1.43-3.56-2.17-.74-3.82-.39-3.66.77-5.77-.82-2.27-3.66-2.39-5.32-.26-2.67-1.44-3.56-2.17-.73-3.82-.39-3.66.78-5.77-.81S191,95.69,190.83,94s-.25-2.68-1.43-3.56-2.17-.74-3.82-.39-3.66.77-5.78-.82-2.27-3.66-2.4-5.32-.25-2.68-1.43-3.57-2.18-.73-3.83-.39-3.65.77-5.77-.82l1.45-1.93c1.18.89,2.18.73,3.83.39s3.65-.77,5.77.82,2.27,3.66,2.4,5.32.25,2.68,1.43,3.57,2.18.73,3.83.38,3.65-.77,5.77.82,2.27,3.66,2.39,5.32.25,2.67,1.43,3.56,2.17.73,3.82.39,3.66-.77,5.78.82,2.26,3.65,2.39,5.31.25,2.68,1.43,3.57,2.17.73,3.82.38,3.66-.77,5.77.82,2.27,3.66,2.39,5.32.25,2.67,1.43,3.56Z" fill="#fff"/>
          <g>
            <path d="M326.44,177.7A7.84,7.84,0,0,0,340,170c2.62,0,5.41-.1,7.6-1.55s3.3-4.82,1.52-6.76c-1.64-1.79-4.45-.93-6.74-.1s-3.61,1.89-5.91,2.68-5.25,1.56-7.73,1.11c-12.88-2.32-17.26-3.73-30.14-6.05l-5.27,25.53,47.24,10.28a42.76,42.76,0,0,0,8.28.91c1.35,0,4.7-.29,5.28-2.43.52-1.9-.39-3.1-2.16-4.56s-6.54-2.29-8.82-2.55c2.28.26,6.17.68,8.06,1s4.22.22,5.25-1.41.23-3.64-1.14-4.81a11.18,11.18,0,0,0-4.95-2,12,12,0,0,1-5-1.9,53.34,53.34,0,0,0,9.17,1.23,4.1,4.1,0,0,0,3.12-.75,2.69,2.69,0,0,0,.46-2.9,5.36,5.36,0,0,0-2-2.29c-3.07-2.13-8.57-2.62-12.3-3" fill="#9f9f9b"/>
            <path d="M333,182.15a9.29,9.29,0,0,1-7.57-3.75l2-1.39a6.64,6.64,0,0,0,11.47-6.56l-.77-1.69,1.86,0c2.22,0,5-.05,6.94-1.35a4.35,4.35,0,0,0,1.84-3,2.38,2.38,0,0,0-.54-1.95c-1-1.1-2.9-.71-5.44.22a21.53,21.53,0,0,0-2.72,1.25,21.73,21.73,0,0,1-3.21,1.43c-2.19.75-5.43,1.68-8.34,1.16-6.45-1.17-10.85-2.12-15.11-3s-8.6-1.86-15-3l.43-2.38c6.46,1.16,10.85,2.11,15.11,3s8.61,1.86,15,3c2.35.42,5.2-.41,7.13-1.06a20.26,20.26,0,0,0,2.88-1.3,25.26,25.26,0,0,1,3-1.38c2-.73,5.74-2.09,8.05.42a4.77,4.77,0,0,1,1.16,3.88,6.77,6.77,0,0,1-2.9,4.7,12.55,12.55,0,0,1-6.62,1.73,9.41,9.41,0,0,1-4.3,9.91A8.74,8.74,0,0,1,333,182.15Z" fill="#fff"/>
            <path d="M348.9,197.21h-.06a43.79,43.79,0,0,1-8.51-.93L293.07,186l.52-2.36,47.24,10.28a41,41,0,0,0,8,.88h0c1.48,0,3.76-.41,4.06-1.54s.1-1.78-1.75-3.3c-1.26-1-5.08-1.94-8.2-2.29a1.21,1.21,0,0,1-1.07-1.2.57.57,0,0,1,0-.13,1.2,1.2,0,0,1,1.34-1.07l.39,0c2.36.27,5.93.67,7.76,1,1.49.29,3.31.21,4-.88s0-2.45-.9-3.23a10.12,10.12,0,0,0-4.43-1.73,12.81,12.81,0,0,1-5.47-2.14,1.2,1.2,0,0,1,1-2.12,52,52,0,0,0,9,1.2,3.25,3.25,0,0,0,2.22-.41,1.54,1.54,0,0,0,.18-1.58,4.27,4.27,0,0,0-1.6-1.75c-2.77-1.91-8.05-2.41-11.55-2.74l-.18,0,.23-2.4h.18c4,.38,9.41.89,12.69,3.16a6.46,6.46,0,0,1,2.47,2.84,3.88,3.88,0,0,1-.73,4.21,4.49,4.49,0,0,1-3.11,1.11c.24.16.46.33.68.51,1.73,1.47,2.72,4.26,1.38,6.37a4.92,4.92,0,0,1-3.85,2.12,4.76,4.76,0,0,1,1.67,5C354.47,197,350.26,197.21,348.9,197.21Z" fill="#fff"/>
          </g>
          <g>
            <g>
              <path d="M182.27,248a11.82,11.82,0,0,0,5.66,7,9.86,9.86,0,0,0,8.9.19,23.42,23.42,0,0,0,4.4-3.38,10.83,10.83,0,0,1,4.78-2.72,4.49,4.49,0,0,1,4.83,1.91c.87,1.63-.21,4.12-2.06,4.17a4.88,4.88,0,1,1,5.87,6.83c.32-1.82,3.09-2.3,4.38-1s1.16,3.57.2,5.15a12.67,12.67,0,0,1-4.09,3.67L208.9,274c-6.08,4-12.67,8.23-20,8-3.39-.09-6.94-1.3-9-4s-2.11-7,.49-9.22" fill="#9f9f9b"/>
              <path d="M189.43,283.29h-.53c-4.22-.11-7.84-1.74-9.94-4.46-2.33-3-2.61-8.13.67-10.88l1.56,1.85c-2.19,1.84-1.92,5.45-.31,7.55s4.6,3.43,8.09,3.52c6.66.22,12.65-3.45,19.26-7.84l6.24-4.15a11.58,11.58,0,0,0,3.72-3.29c.66-1.09.88-2.75,0-3.67a1.26,1.26,0,0,0-.7-.35,5.44,5.44,0,0,1-2.44,1.63,1.2,1.2,0,0,1-1.16-.24,1.16,1.16,0,0,1-.4-1.12,3.3,3.3,0,0,1,2.38-2.54l.32-.09a4.4,4.4,0,0,0,.34-.86,3.3,3.3,0,0,0-3.79-4.4,5.4,5.4,0,0,0-.72.14,4.44,4.44,0,0,1-.24.49,3.49,3.49,0,0,1-2.94,1.85,1.25,1.25,0,0,1-1.05-.56,1.2,1.2,0,0,1-.06-1.19,5.56,5.56,0,0,1,2.24-2.32,1.61,1.61,0,0,0-.17-.74,3.34,3.34,0,0,0-3.53-1.29,9.81,9.81,0,0,0-4.22,2.45l-.74.65a19,19,0,0,1-3.91,2.89,11.08,11.08,0,0,1-10-.2,13,13,0,0,1-6.25-7.72l2.31-.71a10.6,10.6,0,0,0,5.07,6.29,8.63,8.63,0,0,0,7.79.18,17,17,0,0,0,3.4-2.55l.76-.66a12.07,12.07,0,0,1,5.33-3,5.61,5.61,0,0,1,6.13,2.53,3.76,3.76,0,0,1,.38,1.08h.14a5.71,5.71,0,0,1,6.41,7.46c0,.14-.08.27-.13.41a3.64,3.64,0,0,1,1.2.81c1.77,1.82,1.52,4.7.36,6.61a13.57,13.57,0,0,1-4.45,4.06L209.57,275C202.78,279.55,196.56,283.29,189.43,283.29Z" fill="#fff"/>
            </g>
            <g>
              <path d="M164,257a26.55,26.55,0,0,0,14.52,15.73" fill="#9f9f9b"/>
              <path d="M178.07,273.8a27.82,27.82,0,0,1-15.19-16.46l2.3-.77a25.34,25.34,0,0,0,13.84,15Z" fill="#fff"/>
            </g>
            <path d="M185.21,277.85c-1.08-1-1.89-3.17-.79-4.39.91-1,2.41-1.29,3.54-1.87a5,5,0,0,0,2.45-2.39c.56-1.34.15-2.82.71-4.16,1.34-3.2,4.61-4.36,7.83-4.66a8.74,8.74,0,0,1,6.28,1.71c2.79,2.25,3.59,6.5,2.32,9.89a12.39,12.39,0,0,1-7.68,7,21.44,21.44,0,0,1-10.56.51A7.57,7.57,0,0,1,185.21,277.85Z" fill="#63686e" opacity="0.3" style="mix-blend-mode: multiply"/>
          </g>
          <g>
            <polygon points="37.11 143.91 31.12 143.32 13.72 155.47 23.38 162.25 36.95 164.22 37.11 143.91" fill="#9f9f9b"/>
            <g>
              <path d="M19.13,154.59c-.85,3.29-4.77,5.13-8.1,4.43s-5.95-3.38-7.5-6.4c-3.32-6.5-2.39-14.26-1.38-21.48l1.05-7.43a12.63,12.63,0,0,1,1.54-5.27c1-1.54,3-2.63,4.73-2s2.51,3.3,1,4.37a5.12,5.12,0,0,1,6.1-5.35,5.12,5.12,0,0,1,2.59,7.69c-.75-1.69,1-3.74,2.88-3.66A4.49,4.49,0,0,1,25.86,123a10.94,10.94,0,0,1-.39,5.49,22.65,22.65,0,0,0-1.14,5.43,9.86,9.86,0,0,0,4,7.94,11.86,11.86,0,0,0,8.77,2.08" fill="#9f9f9b"/>
              <path d="M12.47,160.38a8,8,0,0,1-1.69-.18c-3.37-.71-6.4-3.27-8.32-7C-.89,146.63-.21,139.24,1,131l1-7.42a13.62,13.62,0,0,1,1.73-5.77c1.22-1.87,3.72-3.34,6.12-2.53a3.84,3.84,0,0,1,1.25.73l.32-.3a6,6,0,0,1,5.48-1.43,6,6,0,0,1,4,4,.5.5,0,0,0,0,.13,4,4,0,0,1,1.14-.13A5.63,5.63,0,0,1,27,122.68a12.14,12.14,0,0,1-.39,6.11l-.28,1a16.81,16.81,0,0,0-.82,4.17,8.61,8.61,0,0,0,3.52,6.94,10.59,10.59,0,0,0,7.87,1.85l.36,2.39a13,13,0,0,1-9.67-2.3,11.07,11.07,0,0,1-4.5-8.94A18.67,18.67,0,0,1,24,129.1l.26-.95a9.85,9.85,0,0,0,.39-4.87,3.35,3.35,0,0,0-2.7-2.62,1.62,1.62,0,0,0-.73.17,5.53,5.53,0,0,1-1.13,3,1.21,1.21,0,0,1-2.06-.25,3.52,3.52,0,0,1,.4-3.45,3.39,3.39,0,0,1,.33-.42,4.74,4.74,0,0,0-.18-.72,3.57,3.57,0,0,0-2.35-2.42,3.59,3.59,0,0,0-3.26.91,4.46,4.46,0,0,0-.63.68c0,.11,0,.22.07.33a3.31,3.31,0,0,1-1.27,3.25,1.21,1.21,0,0,1-1.9-.83A5.52,5.52,0,0,1,9.7,118a1.42,1.42,0,0,0-.62-.48c-1.23-.41-2.63.5-3.32,1.56a11.89,11.89,0,0,0-1.37,4.78l-1,7.43c-1.1,7.86-1.77,14.84,1.26,20.76,1.59,3.1,4,5.21,6.67,5.77s6-.78,6.68-3.55l2.34.6C19.39,158.44,15.82,160.38,12.47,160.38Z" fill="#fff"/>
            </g>
            <path d="M33.86,165.62a27.84,27.84,0,0,1-18.17-6.78L17.28,157a25.37,25.37,0,0,0,19.52,6l.29,2.4A26.8,26.8,0,0,1,33.86,165.62Z" fill="#fff"/>
            <path d="M16,142.92c-.2,1.51-.59,3.17-1.84,4.06-1.92,1.37-5,.27-6.71,1.9a3.56,3.56,0,0,0-.51,4.05A7.78,7.78,0,0,0,10,156c1.39.88,2.34,1.53,4,1.48a8.57,8.57,0,0,0,4.75-1.63c2.68-2,3.62-5.42,4-8.57.33-2.77.92-6.8-1.3-9C18.27,135.14,16.3,140.51,16,142.92Z" fill="#63686e" opacity="0.3" style="mix-blend-mode: multiply"/>
          </g>
          <g>
            <rect x="177.03" y="42.81" width="2.42" height="10.41" transform="translate(-5.26 27.97) rotate(-8.84)" fill="#fff"/>
            <rect x="173.03" y="46.81" width="10.41" height="2.42" transform="translate(-5.26 27.98) rotate(-8.85)" fill="#fff"/>
          </g>
          <g>
            <rect x="264.1" y="108.48" width="2.42" height="10.41" transform="translate(-14.32 42.14) rotate(-8.84)" fill="#fff"/>
            <rect x="260.1" y="112.47" width="10.41" height="2.42" transform="translate(-14.29 42.02) rotate(-8.82)" fill="#fff"/>
          </g>
        </g>
      </g>
    </g>
  </g>
</svg>
